<svg width="15" height="15" viewBox="0 0 15 15" fill="none" xmlns="http://www.w3.org/2000/svg">
<path d="M10.6481 9.45665H10.0227L9.80103 9.2429C10.751 8.13457 11.2419 6.62249 10.9727 5.0154C10.6006 2.81457 8.76395 1.05707 6.54728 0.787904C3.19853 0.376238 0.380197 3.19457 0.791864 6.54332C1.06103 8.75999 2.81853 10.5967 5.01936 10.9687C6.62645 11.2379 8.13853 10.7471 9.24686 9.79707L9.46061 10.0187V10.6442L12.8252 14.0087C13.1498 14.3333 13.6802 14.3333 14.0048 14.0087C14.3294 13.6842 14.3294 13.1537 14.0048 12.8292L10.6481 9.45665ZM5.89811 9.45665C3.92686 9.45665 2.33561 7.8654 2.33561 5.89415C2.33561 3.9229 3.92686 2.33165 5.89811 2.33165C7.86936 2.33165 9.46061 3.9229 9.46061 5.89415C9.46061 7.8654 7.86936 9.45665 5.89811 9.45665Z" fill="#505762"/>
</svg>
